<?xml version="1.0" encoding="UTF-8"?>
<!-- Ce fichier est généré par npm run build:icons -->
<svg xmlns="http://www.w3.org/2000/svg" xmlns:xlink="http://www.w3.org/1999/xlink" width="0" height="0">
<defs>
<symbol viewBox="0 0 24 24" fill="currentColor" id="accessible-filled">
  <path d="M17 3.34a10 10 0 1 1 -14.995 8.984l-.005 -.324l.005 -.324a10 10 0 0 1 14.995 -8.336zm-1.051 6.844a1 1 0 0 0 -1.152 -.663l-.113 .03l-2.684 .895l-2.684 -.895l-.113 -.03a1 1 0 0 0 -.628 1.884l.109 .044l2.316 .771v.976l-1.832 2.75l-.06 .1a1 1 0 0 0 .237 1.21l.1 .076l.101 .06a1 1 0 0 0 1.21 -.237l.076 -.1l1.168 -1.752l1.168 1.752l.07 .093a1 1 0 0 0 1.653 -1.102l-.059 -.1l-1.832 -2.75v-.977l2.316 -.771l.109 -.044a1 1 0 0 0 .524 -1.221zm-3.949 -4.184a1.5 1.5 0 1 0 0 3a1.5 1.5 0 0 0 0 -3z" ></path>
</symbol>
<symbol viewBox="0 0 15 15" fill="none" id="arrow-left">
  <path     fill-rule="evenodd"
    clip-rule="evenodd"
    d="M6.85355 3.14645C7.04882 3.34171 7.04882 3.65829 6.85355 3.85355L3.70711 7H12.5C12.7761 7 13 7.22386 13 7.5C13 7.77614 12.7761 8 12.5 8H3.70711L6.85355 11.1464C7.04882 11.3417 7.04882 11.6583 6.85355 11.8536C6.65829 12.0488 6.34171 12.0488 6.14645 11.8536L2.14645 7.85355C1.95118 7.65829 1.95118 7.34171 2.14645 7.14645L6.14645 3.14645C6.34171 2.95118 6.65829 2.95118 6.85355 3.14645Z"
    fill="currentColor"
  ></path>
</symbol>
<symbol viewBox="0 0 15 15" fill="none" id="arrow-right">
  <path     fill-rule="evenodd"
    clip-rule="evenodd"
    d="M8.14645 3.14645C8.34171 2.95118 8.65829 2.95118 8.85355 3.14645L12.8536 7.14645C13.0488 7.34171 13.0488 7.65829 12.8536 7.85355L8.85355 11.8536C8.65829 12.0488 8.34171 12.0488 8.14645 11.8536C7.95118 11.6583 7.95118 11.3417 8.14645 11.1464L11.2929 8H2.5C2.22386 8 2 7.77614 2 7.5C2 7.22386 2.22386 7 2.5 7H11.2929L8.14645 3.85355C7.95118 3.65829 7.95118 3.34171 8.14645 3.14645Z"
    fill="currentColor"
  ></path>
</symbol>
<symbol viewBox="0 0 15 15" fill="none" id="arrow-up">
  <path     fill-rule="evenodd"
    clip-rule="evenodd"
    d="M7.14645 2.14645C7.34171 1.95118 7.65829 1.95118 7.85355 2.14645L11.8536 6.14645C12.0488 6.34171 12.0488 6.65829 11.8536 6.85355C11.6583 7.04882 11.3417 7.04882 11.1464 6.85355L8 3.70711L8 12.5C8 12.7761 7.77614 13 7.5 13C7.22386 13 7 12.7761 7 12.5L7 3.70711L3.85355 6.85355C3.65829 7.04882 3.34171 7.04882 3.14645 6.85355C2.95118 6.65829 2.95118 6.34171 3.14645 6.14645L7.14645 2.14645Z"
    fill="currentColor"
  ></path>
</symbol>
<symbol viewBox="0 0 15 15" fill="none" id="avatar">
  <path     fill-rule="evenodd"
    clip-rule="evenodd"
    d="M0.877014 7.49988C0.877014 3.84219 3.84216 0.877045 7.49985 0.877045C11.1575 0.877045 14.1227 3.84219 14.1227 7.49988C14.1227 11.1575 11.1575 14.1227 7.49985 14.1227C3.84216 14.1227 0.877014 11.1575 0.877014 7.49988ZM7.49985 1.82704C4.36683 1.82704 1.82701 4.36686 1.82701 7.49988C1.82701 8.97196 2.38774 10.3131 3.30727 11.3213C4.19074 9.94119 5.73818 9.02499 7.50023 9.02499C9.26206 9.02499 10.8093 9.94097 11.6929 11.3208C12.6121 10.3127 13.1727 8.97172 13.1727 7.49988C13.1727 4.36686 10.6328 1.82704 7.49985 1.82704ZM10.9818 11.9787C10.2839 10.7795 8.9857 9.97499 7.50023 9.97499C6.01458 9.97499 4.71624 10.7797 4.01845 11.9791C4.97952 12.7272 6.18765 13.1727 7.49985 13.1727C8.81227 13.1727 10.0206 12.727 10.9818 11.9787ZM5.14999 6.50487C5.14999 5.207 6.20212 4.15487 7.49999 4.15487C8.79786 4.15487 9.84999 5.207 9.84999 6.50487C9.84999 7.80274 8.79786 8.85487 7.49999 8.85487C6.20212 8.85487 5.14999 7.80274 5.14999 6.50487ZM7.49999 5.10487C6.72679 5.10487 6.09999 5.73167 6.09999 6.50487C6.09999 7.27807 6.72679 7.90487 7.49999 7.90487C8.27319 7.90487 8.89999 7.27807 8.89999 6.50487C8.89999 5.73167 8.27319 5.10487 7.49999 5.10487Z"
    fill="currentColor"
  ></path>
</symbol>
<symbol viewBox="0 0 15 15" fill="none" id="border-all">
  <path     fill-rule="evenodd"
    clip-rule="evenodd"
    d="M0.25 1C0.25 0.585786 0.585786 0.25 1 0.25H14C14.4142 0.25 14.75 0.585786 14.75 1V14C14.75 14.4142 14.4142 14.75 14 14.75H1C0.585786 14.75 0.25 14.4142 0.25 14V1ZM1.75 1.75V13.25H13.25V1.75H1.75Z"
    fill="currentColor"
  ></path>
  <rect x="7" y="5" width="1" height="1" rx=".5" fill="currentColor" ></rect>
  <rect x="7" y="3" width="1" height="1" rx=".5" fill="currentColor" ></rect>
  <rect x="7" y="7" width="1" height="1" rx=".5" fill="currentColor" ></rect>
  <rect x="5" y="7" width="1" height="1" rx=".5" fill="currentColor" ></rect>
  <rect x="3" y="7" width="1" height="1" rx=".5" fill="currentColor" ></rect>
  <rect x="9" y="7" width="1" height="1" rx=".5" fill="currentColor" ></rect>
  <rect x="11" y="7" width="1" height="1" rx=".5" fill="currentColor" ></rect>
  <rect x="7" y="9" width="1" height="1" rx=".5" fill="currentColor" ></rect>
  <rect x="7" y="11" width="1" height="1" rx=".5" fill="currentColor" ></rect>
</symbol>
<symbol viewBox="0 0 15 15" fill="none" id="border-style">
  <path     fill-rule="evenodd"
    clip-rule="evenodd"
    d="M1.5 3C1.22386 3 1 3.22386 1 3.5C1 3.77614 1.22386 4 1.5 4H13.5C13.7761 4 14 3.77614 14 3.5C14 3.22386 13.7761 3 13.5 3H1.5ZM1 7.5C1 7.22386 1.22386 7 1.5 7H3.5C3.77614 7 4 7.22386 4 7.5C4 7.77614 3.77614 8 3.5 8H1.5C1.22386 8 1 7.77614 1 7.5ZM1 11.5C1 11.2239 1.22386 11 1.5 11C1.77614 11 2 11.2239 2 11.5C2 11.7761 1.77614 12 1.5 12C1.22386 12 1 11.7761 1 11.5ZM3 11.5C3 11.2239 3.22386 11 3.5 11C3.77614 11 4 11.2239 4 11.5C4 11.7761 3.77614 12 3.5 12C3.22386 12 3 11.7761 3 11.5ZM5.5 11C5.22386 11 5 11.2239 5 11.5C5 11.7761 5.22386 12 5.5 12C5.77614 12 6 11.7761 6 11.5C6 11.2239 5.77614 11 5.5 11ZM7 11.5C7 11.2239 7.22386 11 7.5 11C7.77614 11 8 11.2239 8 11.5C8 11.7761 7.77614 12 7.5 12C7.22386 12 7 11.7761 7 11.5ZM9.5 11C9.22386 11 9 11.2239 9 11.5C9 11.7761 9.22386 12 9.5 12C9.77614 12 10 11.7761 10 11.5C10 11.2239 9.77614 11 9.5 11ZM11 11.5C11 11.2239 11.2239 11 11.5 11C11.7761 11 12 11.2239 12 11.5C12 11.7761 11.7761 12 11.5 12C11.2239 12 11 11.7761 11 11.5ZM13.5 11C13.2239 11 13 11.2239 13 11.5C13 11.7761 13.2239 12 13.5 12C13.7761 12 14 11.7761 14 11.5C14 11.2239 13.7761 11 13.5 11ZM6.5 7C6.22386 7 6 7.22386 6 7.5C6 7.77614 6.22386 8 6.5 8H8.5C8.77614 8 9 7.77614 9 7.5C9 7.22386 8.77614 7 8.5 7H6.5ZM11 7.5C11 7.22386 11.2239 7 11.5 7H13.5C13.7761 7 14 7.22386 14 7.5C14 7.77614 13.7761 8 13.5 8H11.5C11.2239 8 11 7.77614 11 7.5Z"
    fill="currentColor"
  ></path>
</symbol>
<symbol viewBox="0 0 24 24" fill="none" stroke="currentColor" stroke-width="2" stroke-linecap="round" stroke-linejoin="round" id="current-location-outline">
  <path d="M12 12m-3 0a3 3 0 1 0 6 0a3 3 0 1 0 -6 0" ></path>
  <path d="M12 12m-8 0a8 8 0 1 0 16 0a8 8 0 1 0 -16 0" ></path>
  <path d="M12 2l0 2" ></path>
  <path d="M12 20l0 2" ></path>
  <path d="M20 12l2 0" ></path>
  <path d="M2 12l2 0" ></path>
</symbol>
<symbol viewBox="0 0 15 15" fill="none" id="figma-logo">
  <path     fill-rule="evenodd"
    clip-rule="evenodd"
    d="M7.00005 2.04999H5.52505C4.71043 2.04999 4.05005 2.71037 4.05005 3.52499C4.05005 4.33961 4.71043 4.99999 5.52505 4.99999H7.00005V2.04999ZM7.00005 1.04999H8.00005H9.47505C10.842 1.04999 11.95 2.15808 11.95 3.52499C11.95 4.33163 11.5642 5.04815 10.9669 5.49999C11.5642 5.95184 11.95 6.66836 11.95 7.475C11.95 8.8419 10.842 9.95 9.47505 9.95C8.92236 9.95 8.41198 9.76884 8.00005 9.46266V9.95L8.00005 11.425C8.00005 12.7919 6.89195 13.9 5.52505 13.9C4.15814 13.9 3.05005 12.7919 3.05005 11.425C3.05005 10.6183 3.43593 9.90184 4.03317 9.44999C3.43593 8.99814 3.05005 8.28163 3.05005 7.475C3.05005 6.66836 3.43594 5.95184 4.03319 5.5C3.43594 5.04815 3.05005 4.33163 3.05005 3.52499C3.05005 2.15808 4.15814 1.04999 5.52505 1.04999H7.00005ZM8.00005 2.04999V4.99999H9.47505C10.2897 4.99999 10.95 4.33961 10.95 3.52499C10.95 2.71037 10.2897 2.04999 9.47505 2.04999H8.00005ZM5.52505 8.94998H7.00005L7.00005 7.4788L7.00005 7.475L7.00005 7.4712V6H5.52505C4.71043 6 4.05005 6.66038 4.05005 7.475C4.05005 8.28767 4.70727 8.94684 5.5192 8.94999L5.52505 8.94998ZM4.05005 11.425C4.05005 10.6123 4.70727 9.95315 5.5192 9.94999L5.52505 9.95H7.00005L7.00005 11.425C7.00005 12.2396 6.33967 12.9 5.52505 12.9C4.71043 12.9 4.05005 12.2396 4.05005 11.425ZM8.00005 7.47206C8.00164 6.65879 8.66141 6 9.47505 6C10.2897 6 10.95 6.66038 10.95 7.475C10.95 8.28962 10.2897 8.95 9.47505 8.95C8.66141 8.95 8.00164 8.29121 8.00005 7.47794V7.47206Z"
    fill="currentColor"
  ></path>
</symbol>
<symbol viewBox="0 0 24 24" fill="none" stroke="currentColor" stroke-width="2" stroke-linecap="round" stroke-linejoin="round" id="file-phone-outline">
  <path d="M14 3v4a1 1 0 0 0 1 1h4" ></path>
  <path d="M17 21h-10a2 2 0 0 1 -2 -2v-14a2 2 0 0 1 2 -2h7l5 5v11a2 2 0 0 1 -2 2z" ></path>
  <path d="M9 12a.5 .5 0 0 0 1 0v-1a.5 .5 0 0 0 -1 0v1a5 5 0 0 0 5 5h1a.5 .5 0 0 0 0 -1h-1a.5 .5 0 0 0 0 1" ></path>
</symbol>
<symbol viewBox="0 0 15 15" fill="none" id="instagram-logo">
  <path fill-rule="evenodd" clip-rule="evenodd" d="M12.9091 12.909C13.2365 12.5817 13.4918 12.1895 13.6588 11.7577C13.8195 11.3443 13.9294 10.8718 13.961 10.1799C13.9926 9.48665 14.0001 9.26529 14.0001 7.50001C14.0001 5.73473 13.9926 5.51328 13.961 4.82008C13.9294 4.12821 13.8195 3.65573 13.6588 3.24228C13.4956 2.80857 13.2398 2.41567 12.9091 2.091C12.5844 1.76028 12.1915 1.50437 11.7578 1.34113C11.3443 1.18056 10.8718 1.0707 10.1799 1.03924C9.48675 1.00748 9.26537 1 7.50006 1C5.73476 1 5.51333 1.00748 4.82014 1.03912C4.12826 1.0707 3.65578 1.18056 3.24233 1.34125C2.80862 1.50447 2.41573 1.76032 2.09105 2.09098C1.76032 2.41563 1.5044 2.80852 1.34113 3.24225C1.18056 3.65573 1.0707 4.12821 1.03924 4.82008C1.00748 5.51328 1 5.73471 1 7.50001C1 9.26532 1.00748 9.48675 1.03924 10.1799C1.07083 10.8718 1.18069 11.3443 1.34138 11.7577C1.5046 12.1915 1.76045 12.5843 2.09111 12.909C2.41578 13.2397 2.80867 13.4955 3.24238 13.6587C3.65586 13.8194 4.12834 13.9293 4.82019 13.9609C5.51348 13.9925 5.73483 14 7.50012 14C9.2654 14 9.48685 13.9925 10.18 13.9609C10.8719 13.9293 11.3444 13.8194 11.7578 13.6587C12.1896 13.4917 12.5818 13.2364 12.9091 12.909ZM1.99949 6.73496C1.99974 6.94524 2.00005 7.19543 2.00005 7.50002C2.00005 7.80461 1.99974 8.0548 1.99949 8.26507C1.99849 9.08596 1.99824 9.29856 2.01963 9.7655C2.04625 10.3509 2.07823 10.7811 2.17588 11.1053C2.26976 11.417 2.37505 11.7342 2.7188 12.1171C3.06255 12.4999 3.39411 12.6733 3.81645 12.8007C4.23879 12.928 4.7696 12.9554 5.23052 12.9764C5.75332 13.0003 5.96052 13.0002 7.05714 12.9999L7.50006 12.9999C7.79304 12.9999 8.03569 13.0001 8.2409 13.0004C9.08195 13.0013 9.29425 13.0015 9.76575 12.9799C10.3512 12.9533 10.7814 12.9213 11.1056 12.8237C11.4173 12.7298 11.7345 12.6245 12.1173 12.2807C12.5001 11.937 12.6735 11.6054 12.8009 11.1831C12.9283 10.7607 12.9557 10.2299 12.9767 9.76902C13.0005 9.24689 13.0004 9.04027 13.0002 7.94749V7.94738L13.0001 7.50039L13.0001 7.05747C13.0004 5.96085 13.0005 5.75365 12.9766 5.23085C12.9556 4.76993 12.9282 4.23912 12.8009 3.81678C12.6735 3.39445 12.5001 3.06288 12.1173 2.71913C11.7345 2.37538 11.4172 2.27009 11.1056 2.17621C10.7813 2.07856 10.3511 2.04658 9.76571 2.01996C9.29421 1.99836 9.08194 1.99859 8.24092 1.99951H8.24092C8.0357 1.99974 7.79305 2.00001 7.50006 2.00001L7.05704 1.99993C5.96051 1.99964 5.75331 1.99958 5.23052 2.02343C4.7696 2.04446 4.23879 2.07183 3.81645 2.19921C3.39411 2.32659 3.06255 2.49999 2.7188 2.88281C2.37505 3.26562 2.26976 3.58286 2.17588 3.89453C2.07823 4.21874 2.04625 4.64894 2.01963 5.23437C1.99824 5.70131 1.99849 5.91401 1.99949 6.73496ZM7.49996 5.25015C6.25741 5.25015 5.25012 6.25744 5.25012 7.49999C5.25012 8.74254 6.25741 9.74983 7.49996 9.74983C8.74251 9.74983 9.7498 8.74254 9.7498 7.49999C9.7498 6.25744 8.74251 5.25015 7.49996 5.25015ZM4.25012 7.49999C4.25012 5.70515 5.70512 4.25015 7.49996 4.25015C9.2948 4.25015 10.7498 5.70515 10.7498 7.49999C10.7498 9.29483 9.2948 10.7498 7.49996 10.7498C5.70512 10.7498 4.25012 9.29483 4.25012 7.49999ZM10.9697 4.7803C11.3839 4.7803 11.7197 4.44452 11.7197 4.0303C11.7197 3.61609 11.3839 3.2803 10.9697 3.2803C10.5555 3.2803 10.2197 3.61609 10.2197 4.0303C10.2197 4.44452 10.5555 4.7803 10.9697 4.7803Z" fill="currentColor"></path>
</symbol>
<symbol viewBox="0 0 15 15" fill="none" id="linkedin-logo">
  <path     fill-rule="evenodd"
    clip-rule="evenodd"
    d="M2 1C1.44772 1 1 1.44772 1 2V13C1 13.5523 1.44772 14 2 14H13C13.5523 14 14 13.5523 14 13V2C14 1.44772 13.5523 1 13 1H2ZM3.05 6H4.95V12H3.05V6ZM5.075 4.005C5.075 4.59871 4.59371 5.08 4 5.08C3.4063 5.08 2.925 4.59871 2.925 4.005C2.925 3.41129 3.4063 2.93 4 2.93C4.59371 2.93 5.075 3.41129 5.075 4.005ZM12 8.35713C12 6.55208 10.8334 5.85033 9.67449 5.85033C9.29502 5.83163 8.91721 5.91119 8.57874 6.08107C8.32172 6.21007 8.05265 6.50523 7.84516 7.01853H7.79179V6.00044H6V12.0047H7.90616V8.8112C7.8786 8.48413 7.98327 8.06142 8.19741 7.80987C8.41156 7.55832 8.71789 7.49825 8.95015 7.46774H9.02258C9.62874 7.46774 10.0786 7.84301 10.0786 8.78868V12.0047H11.9847L12 8.35713Z"
    fill="currentColor"
  ></path>
</symbol>
<symbol viewBox="0 0 15 15" fill="none" id="magnifying-glass">
  <path     fill-rule="evenodd"
    clip-rule="evenodd"
    d="M10 6.5C10 8.433 8.433 10 6.5 10C4.567 10 3 8.433 3 6.5C3 4.567 4.567 3 6.5 3C8.433 3 10 4.567 10 6.5ZM9.30884 10.0159C8.53901 10.6318 7.56251 11 6.5 11C4.01472 11 2 8.98528 2 6.5C2 4.01472 4.01472 2 6.5 2C8.98528 2 11 4.01472 11 6.5C11 7.56251 10.6318 8.53901 10.0159 9.30884L12.8536 12.1464C13.0488 12.3417 13.0488 12.6583 12.8536 12.8536C12.6583 13.0488 12.3417 13.0488 12.1464 12.8536L9.30884 10.0159Z"
    fill="currentColor"
  ></path>
</symbol>
<symbol viewBox="0 0 24 24" fill="none" stroke="currentColor" stroke-width="2" stroke-linecap="round" stroke-linejoin="round" id="mail-outline">
  <path d="M3 7a2 2 0 0 1 2 -2h14a2 2 0 0 1 2 2v10a2 2 0 0 1 -2 2h-14a2 2 0 0 1 -2 -2v-10z" ></path>
  <path d="M3 7l9 6l9 -6" ></path>
</symbol>
<symbol viewBox="0 0 24 24" fill="currentColor" id="phone-filled">
  <path d="M9 3a1 1 0 0 1 .877 .519l.051 .11l2 5a1 1 0 0 1 -.313 1.16l-.1 .068l-1.674 1.004l.063 .103a10 10 0 0 0 3.132 3.132l.102 .062l1.005 -1.672a1 1 0 0 1 1.113 -.453l.115 .039l5 2a1 1 0 0 1 .622 .807l.007 .121v4c0 1.657 -1.343 3 -3.06 2.998c-8.579 -.521 -15.418 -7.36 -15.94 -15.998a3 3 0 0 1 2.824 -2.995l.176 -.005h4z" ></path>
</symbol>
<symbol viewBox="0 0 24 24" fill="none" stroke="currentColor" stroke-width="2" stroke-linecap="round" stroke-linejoin="round" id="phone-outline">
  <path d="M5 4h4l2 5l-2.5 1.5a11 11 0 0 0 5 5l1.5 -2.5l5 2v4a2 2 0 0 1 -2 2a16 16 0 0 1 -15 -15a2 2 0 0 1 2 -2" ></path>
</symbol>
<symbol viewBox="0 0 15 15" fill="none" id="twitter-logo">
  <path     fill-rule="evenodd"
    clip-rule="evenodd"
    d="M7.23336 4.69629C7.23336 2.96884 8.63335 1.56857 10.36 1.56857C11.3736 1.56857 12.183 2.04804 12.7254 2.74385C13.3079 2.62467 13.8557 2.40913 14.3513 2.11508C14.1559 2.72598 13.7424 3.2396 13.2033 3.56463C13.2038 3.56568 13.2042 3.56674 13.2047 3.56779C13.7334 3.50361 14.2364 3.36302 14.7048 3.15546L14.7037 3.15715C14.3667 3.66183 13.9431 4.10736 13.4561 4.47034C13.4823 4.64672 13.4956 4.82427 13.4956 5.00079C13.4956 8.6871 10.6873 12.9746 5.52122 12.9746C3.93906 12.9746 2.46544 12.511 1.22505 11.7152C0.992632 11.5661 0.925108 11.2568 1.07423 11.0244C1.0874 11.0038 1.10183 10.9846 1.11734 10.9666C1.20582 10.8202 1.37438 10.7309 1.5554 10.7522C2.47066 10.8601 3.38568 10.7485 4.19219 10.3962C3.39226 10.0434 2.77129 9.35975 2.50204 8.51974C2.45359 8.3686 2.48835 8.20311 2.59351 8.08422C2.59716 8.0801 2.60087 8.07606 2.60464 8.0721C1.96391 7.50819 1.55973 6.68208 1.55973 5.76143V5.72759C1.55973 5.56814 1.64411 5.42059 1.78155 5.33974C1.82671 5.31317 1.87537 5.29511 1.92532 5.28558C1.70549 4.86154 1.58116 4.37984 1.58116 3.86958C1.58116 3.40165 1.58384 2.81192 1.91332 2.28081C1.98718 2.16175 2.10758 2.08915 2.2364 2.07195C2.42588 2.01237 2.64087 2.06969 2.77406 2.23302C3.86536 3.57126 5.44066 4.49583 7.23366 4.73961L7.23336 4.69629ZM5.52122 11.9746C4.73387 11.9746 3.97781 11.8435 3.27248 11.6023C4.13012 11.4538 4.95307 11.1159 5.66218 10.5602C5.81211 10.4427 5.87182 10.2435 5.81126 10.0629C5.7507 9.88234 5.583 9.75943 5.39255 9.75607C4.68968 9.74366 4.06712 9.39716 3.67793 8.86845C3.86828 8.85306 4.05428 8.82039 4.23445 8.77167C4.43603 8.71716 4.57363 8.53114 4.56674 8.32243C4.55985 8.11372 4.41029 7.93718 4.20555 7.89607C3.42694 7.73977 2.79883 7.16764 2.56169 6.42174C2.76255 6.47025 2.97102 6.4991 3.18482 6.5061C3.38563 6.51267 3.56646 6.38533 3.62795 6.19405C3.68943 6.00277 3.61666 5.79391 3.44963 5.68224C2.86523 5.29155 2.48116 4.62464 2.48116 3.86958C2.48116 3.70213 2.48352 3.55268 2.49355 3.41719C3.85115 4.79913 5.70873 5.68931 7.77588 5.79338C7.93225 5.80126 8.08328 5.73543 8.18395 5.61553C8.28463 5.49562 8.32332 5.33548 8.28851 5.18284C8.25255 5.02517 8.23336 4.86284 8.23336 4.69629C8.23336 3.52085 9.18591 2.56857 10.36 2.56857C11.5943 2.56857 12.4956 3.71208 12.4956 5.00079C12.4956 8.25709 10.0202 11.9746 5.52122 11.9746Z"
    fill="currentColor"
  ></path>
</symbol>
<symbol xmlns:dc="http://purl.org/dc/elements/1.1/" xmlns:cc="http://creativecommons.org/ns#" xmlns:rdf="http://www.w3.org/1999/02/22-rdf-syntax-ns#" xmlns:svg="http://www.w3.org/2000/svg" xmlns:sodipodi="http://sodipodi.sourceforge.net/DTD/sodipodi-0.dtd" xmlns:inkscape="http://www.inkscape.org/namespaces/inkscape" style="fill-rule:evenodd;clip-rule:evenodd;stroke-linejoin:round;stroke-miterlimit:1.41421;" viewBox="0 0 24 24" xml:space="preserve" id="watsapp" sodipodi:docname="whatsapp.svg" inkscape:version="0.92.4 (5da689c313, 2019-01-14)"><metadata 
     id="metadata19"><rdf:RDF><cc:Work 
         rdf:about=""><dc:format>image/svg+xml</dc:format><dc:type 
           rdf:resource="http://purl.org/dc/dcmitype/StillImage" ></dc:type></cc:Work></rdf:RDF></metadata><defs 
     id="defs17"><filter 
       style="color-interpolation-filters:sRGB;"
       inkscape:label="Drop Shadow"
       id="filter1556"><feFlood 
         flood-opacity="0.313726"
         flood-color="rgb(0,0,0)"
         result="flood"
         id="feFlood1546" ></feFlood><feComposite 
         in="flood"
         in2="SourceGraphic"
         operator="in"
         result="composite1"
         id="feComposite1548" ></feComposite><feGaussianBlur 
         in="composite1"
         stdDeviation="1.5"
         result="blur"
         id="feGaussianBlur1550" ></feGaussianBlur><feOffset 
         dx="-2.77556e-17"
         dy="-1.08247e-15"
         result="offset"
         id="feOffset1552" ></feOffset><feComposite 
         in="SourceGraphic"
         in2="offset"
         operator="over"
         result="composite2"
         id="feComposite1554" ></feComposite></filter></defs><sodipodi:namedview 
     pagecolor="#ffffff"
     bordercolor="#666666"
     borderopacity="1"
     objecttolerance="10"
     gridtolerance="10"
     guidetolerance="10"
     inkscape:pageopacity="0"
     inkscape:pageshadow="2"
     inkscape:window-width="1366"
     inkscape:window-height="705"
     id="namedview15"
     showgrid="false"
     inkscape:zoom="9.8333333"
     inkscape:cx="12"
     inkscape:cy="12"
     inkscape:window-x="-8"
     inkscape:window-y="-8"
     inkscape:window-maximized="1"
     inkscape:current-layer="svg13" ></sodipodi:namedview><rect 
     height="24"
     id="Artboard1"
     style="fill:none;"
     width="24"
     x="0"
     y="0" ></rect><g 
     id="g11"
     style="filter:url(#filter1556)"><g 
       id="g7"><path 
         d="M4.018,17.048c-0.96,-1.484 -1.518,-3.253 -1.518,-5.151c0,-5.243 4.257,-9.5 9.5,-9.5c5.243,0 9.5,4.257 9.5,9.5c0,5.243 -4.257,9.5 -9.5,9.5c-1.777,0 -3.44,-0.489 -4.863,-1.339l-4.637,1.545l1.518,-4.555Z"
         style="fill:#f3f3f3;"
         id="path3" ></path><path 
         d="M5.795,16.304c-0.886,-1.244 -1.407,-2.765 -1.407,-4.407c0,-4.201 3.411,-7.612 7.612,-7.612c4.201,0 7.612,3.411 7.612,7.612c0,4.201 -3.411,7.611 -7.612,7.611c-1.59,0 -3.066,-0.488 -4.288,-1.323l-2.862,0.954l0.945,-2.835Z"
         style="fill:#00a82d;"
         id="path5" ></path></g><path 
       d="M9.714,13.873c-1.124,-1.374 -1.874,-3.056 -2.109,-4.88c-0.063,-0.508 0.106,-1.018 0.461,-1.387c0.355,-0.369 0.858,-0.558 1.368,-0.515l0.049,0.005c0,0 0.561,0.15 0.868,0.233c0.122,0.033 0.219,0.124 0.26,0.243c0.138,0.41 0.464,1.373 0.618,1.826c0.05,0.147 0.004,0.31 -0.114,0.41c-0.233,0.196 -0.618,0.52 -0.858,0.723c-0.129,0.109 -0.17,0.29 -0.1,0.443c0.279,0.608 0.635,1.176 1.057,1.69c0.434,0.502 0.933,0.949 1.485,1.327c0.14,0.095 0.325,0.085 0.454,-0.024c0.241,-0.202 0.626,-0.526 0.858,-0.722c0.119,-0.1 0.287,-0.117 0.424,-0.043c0.42,0.228 1.314,0.712 1.694,0.918c0.111,0.06 0.185,0.172 0.196,0.297c0.029,0.317 0.083,0.895 0.083,0.895l-0.004,0.049c-0.044,0.51 -0.315,0.974 -0.739,1.261c-0.424,0.288 -0.955,0.368 -1.445,0.22c-1.772,-0.545 -3.313,-1.581 -4.479,-2.937l-0.027,-0.032Z"
       style="fill:#f3f3f3;"
       id="path9" ></path></g></symbol>
<symbol viewBox="0 0 15 15" fill="none" id="zoom-out">
  <path     fill-rule="evenodd"
    clip-rule="evenodd"
    d="M6.5 10C8.433 10 10 8.433 10 6.5C10 4.567 8.433 3 6.5 3C4.567 3 3 4.567 3 6.5C3 8.433 4.567 10 6.5 10ZM6.5 11C7.56251 11 8.53901 10.6318 9.30884 10.0159L12.1464 12.8536C12.3417 13.0488 12.6583 13.0488 12.8536 12.8536C13.0488 12.6583 13.0488 12.3417 12.8536 12.1464L10.0159 9.30884C10.6318 8.53901 11 7.56251 11 6.5C11 4.01472 8.98528 2 6.5 2C4.01472 2 2 4.01472 2 6.5C2 8.98528 4.01472 11 6.5 11ZM4.75 6C4.47386 6 4.25 6.22386 4.25 6.5C4.25 6.77614 4.47386 7 4.75 7H8.25C8.52614 7 8.75 6.77614 8.75 6.5C8.75 6.22386 8.52614 6 8.25 6H4.75Z"
    fill="currentColor"
  ></path>
</symbol>
</defs>
</svg>
